<svg width="538" height="258" viewBox="0 0 538 258" fill="none" xmlns="http://www.w3.org/2000/svg">
<path d="M59.4925 67.992H41.5145L51.0857 37.2691L59.4925 67.992ZM32.2004 101.869L38.3241 81.6799H62.5471L68.2926 101.869H90.7312L68.4287 24.8461C67.1436 20.2934 64.3461 18.1956 59.4925 18.1956H27.7399V25.471H30.4162C33.7275 25.471 35.5269 26.7356 35.5269 29.2351C35.5269 30.8716 35.1489 32.2404 33.8334 36.0045L11.5157 101.869H32.2004Z" fill="#122B54"/>
<path d="M116.572 101.884V24.623C116.572 20.6059 114.168 18.2106 110.206 18.2106H90.5799V25.4859H91.8502C95.1617 25.4859 96.5525 26.8695 96.5525 30.1575V101.884H116.572Z" fill="#122B54"/>
<path d="M150.608 101.884V24.623C150.608 20.6059 148.174 18.2106 144.227 18.2106H124.601V25.4859H125.856C129.182 25.4859 130.589 26.8695 130.589 30.1575V101.884H150.608Z" fill="#122B54"/>
<path d="M185.521 25.828C185.521 20.219 181.302 16.8268 174.044 16.8268C166.787 16.8268 162.553 20.219 162.553 25.828C162.553 31.437 166.908 34.8738 174.044 34.8738C181.181 34.8738 185.521 31.5114 185.521 25.828ZM185.143 101.869V45.5411C185.143 41.5243 182.708 39.1586 178.747 39.1586H159.378V46.3H160.512C163.823 46.3 165.229 47.8026 165.229 51.061V101.869H185.143Z" fill="#122B54"/>
<path d="M228.962 71.7561V83.9414C225.635 87.3333 221.568 89.3569 218.135 89.3569C214.703 89.3569 213.282 87.6159 213.282 82.9294C213.282 78.2428 214.28 76.1748 217.863 74.8061C220.539 73.6606 223.987 72.6638 228.962 71.7561ZM202.032 57.1162C208.67 53.977 215.943 52.2213 221.674 52.2213C227.041 52.2213 228.962 54.111 228.962 59.586V60.9847C220.812 62.249 218.256 62.77 213.66 63.7668C211.014 64.3766 208.549 65.1207 206.13 66.1323C198.086 69.3015 194.29 75.4163 194.29 84.819C194.29 96.7364 199.507 102.494 210.349 102.494C214.295 102.494 217.878 101.75 221.069 100.5C223.866 99.2802 225.529 98.2538 229.612 95.1146V95.9923C229.612 99.8756 231.638 101.869 235.599 101.869H253.835V95.1146H252.943C249.51 95.1146 248.24 93.5968 248.24 89.5948V59.72C248.24 43.8006 242.63 38.2511 226.421 38.2511C221.205 38.2511 216.109 38.9057 211.15 40.0365C206.145 41.1524 203.59 42.164 197.632 45.0501L202.062 57.1014L202.032 57.1162Z" fill="#122B54"/>
<path d="M282.866 101.884V59.4821C286.192 55.8367 289.625 54.2002 293.586 54.2002C297.805 54.2002 298.818 55.8367 298.818 62.1451V101.884H318.701V59.2438C318.701 49.3205 317.96 46.1809 314.77 42.8186C312.094 39.9174 308.011 38.4297 302.764 38.4297C294.977 38.4297 289.504 40.8102 282.14 47.5795V45.0801C282.14 41.182 280.068 39.1736 276.001 39.1736H257.116V46.3148H258.265C261.576 46.3148 262.998 47.8174 262.998 51.0758V101.884H282.881H282.866Z" fill="#122B54"/>
<path d="M377.716 88.7171H349.925L376.446 52.1026V39.1587H334.895C330.177 39.1587 328.015 41.2864 328.015 45.943V57.3393H335.409V56.2238C335.409 53.3373 336.936 51.9686 340.111 51.9686H354.415L327.637 88.985V101.899H377.746V88.7319L377.716 88.7171Z" fill="#122B54"/>
<path d="M482.105 29.3839C482.105 23.7303 480.066 21.8408 474.486 21.8408H457.625V29.7558H458.639C462.494 29.7558 463.236 30.6038 463.236 35.1714V100.292H482.105V29.3839ZM490.422 100.277H509.158V45.0653C509.158 39.5157 506.979 37.5221 501.492 37.5221H490.422V100.277ZM454.952 100.277V37.5221H443.853C438.362 37.5221 436.215 39.5157 436.215 45.0653V100.277H454.952ZM526.861 64.2427C526.861 95.4865 504.03 118.19 472.671 118.19C441.311 118.19 418.48 95.4717 418.48 64.2427C418.48 33.0141 441.311 10.2806 472.671 10.2806C504.03 10.2806 526.861 33.1331 526.861 64.2427ZM537.96 64.2427C537.96 27.5092 510.032 -6.10352e-05 472.687 -6.10352e-05C435.341 -6.10352e-05 407.397 27.5092 407.397 64.2427C407.397 100.976 435.325 128.471 472.687 128.471C510.048 128.471 537.96 101.021 537.96 64.2427Z" fill="#122B54"/>
<path d="M316.693 215.318L320.395 195.771H258.493L254.659 215.318H316.693Z" fill="#49CAED"/>
<path d="M319.762 251.044L322.609 236.622H250.344L246.515 256.169H313.625C316.6 256.169 319.187 254.028 319.762 251.063V251.044Z" fill="#49CAED"/>
<path d="M330.754 156.33H266.118L262.288 175.877H334.534L336.875 163.944C337.656 159.99 334.701 156.312 330.739 156.312L330.754 156.33Z" fill="#49CAED"/>
<path d="M20.3132 155.836H46.8774C62.7247 155.836 74.7034 159.441 82.7939 166.652C90.9041 173.882 94.974 184.387 94.974 198.242C94.974 209.37 92.5046 219.308 87.5904 228.111C82.6811 236.86 75.6116 243.76 66.4263 248.738C57.2361 253.716 46.4847 256.187 34.1918 256.187H0.690582L20.3132 155.817V155.836ZM35.0656 236.603C42.837 236.603 49.6463 235.085 55.4884 232.101C61.3255 229.099 65.847 224.872 68.989 219.473C72.1358 214.074 73.7363 207.741 73.7363 200.512C73.7363 183.783 64.0796 175.383 44.8106 175.383H37.1275L25.0212 236.603H35.0656Z" fill="#122B54"/>
<path d="M143.228 155.836L123.6 256.169H103.104L122.726 155.836H143.228Z" fill="#122B54"/>
<path d="M231.095 206.734C225.945 213.396 219.263 217.844 211.099 220.058L228.807 256.151H206.244L189.729 221.248H175.555L168.781 256.151H148.265L167.892 155.817H202.262C214.261 155.817 223.377 158.361 229.568 163.413C235.763 168.464 238.871 175.419 238.871 184.241C238.871 192.568 236.284 200.054 231.114 206.734H231.095ZM179.085 203.074H201.649C206.764 203.074 210.745 201.628 213.612 198.718C216.455 195.808 217.889 192.092 217.889 187.59C217.889 183.582 216.642 180.544 214.133 178.494C211.619 176.444 207.417 175.401 201.501 175.401H184.54L179.085 203.092V203.074Z" fill="#122B54"/>
<path d="M350.489 246.469C342.919 238.8 339.144 228.203 339.144 214.659C339.144 203.44 341.544 193.191 346.306 183.966C351.088 174.742 357.745 167.439 366.302 162.077C374.878 156.714 384.604 154.024 395.522 154.024C402.331 154.024 408.655 155.049 414.551 157.117C420.466 159.167 425.022 162.004 428.277 165.609L420 182.447C417.064 179.647 413.436 177.451 409.175 175.895C404.899 174.339 400.471 173.571 395.822 173.571C388.939 173.571 382.763 175.273 377.313 178.677C371.864 182.099 367.623 186.766 364.608 192.678C361.614 198.59 360.087 205.27 360.087 212.683C360.087 220.9 362.06 227.251 365.988 231.717C369.91 236.183 375.713 238.416 383.396 238.416C388.026 238.416 392.694 237.665 397.402 236.146C402.125 234.627 406.593 232.449 410.829 229.521L412.896 250.147C408.468 252.673 403.613 254.595 398.37 255.931C393.107 257.304 387.672 257.963 382.056 257.963C368.59 257.963 358.044 254.119 350.474 246.45V246.487H350.489V246.469Z" fill="#122B54"/>
<path d="M514.715 175.401H486.516L470.743 256.169H450.246L466.02 175.401H437.968L441.65 155.854H518.53L514.696 175.401H514.715Z" fill="#122B54"/>
</svg>
